<svg id="b03c4d90-4f8e-4f04-928b-44ec74965c8e" data-name="Capa 1" xmlns="http://www.w3.org/2000/svg" viewBox="0 0 273.83 96.31"><title>transforCars(carro)</title><path d="M177.21,44.35a.7.7,0,0,0,.7.7h17a.7.7,0,0,0,0-1.4h-17A.7.7,0,0,0,177.21,44.35Zm0,0a.7.7,0,0,0,.7.7h17a.7.7,0,0,0,0-1.4h-17A.7.7,0,0,0,177.21,44.35Zm0,0a.7.7,0,0,0,.7.7h17a.7.7,0,0,0,0-1.4h-17A.7.7,0,0,0,177.21,44.35Zm0,0a.7.7,0,0,0,.7.7h17a.7.7,0,0,0,0-1.4h-17A.7.7,0,0,0,177.21,44.35Zm0,0a.7.7,0,0,0,.7.7h17a.7.7,0,0,0,0-1.4h-17A.7.7,0,0,0,177.21,44.35Zm0,0a.7.7,0,0,0,.7.7h17a.7.7,0,0,0,0-1.4h-17A.7.7,0,0,0,177.21,44.35Zm0,0a.7.7,0,0,0,.7.7h17a.7.7,0,0,0,0-1.4h-17A.7.7,0,0,0,177.21,44.35Zm0,0a.7.7,0,0,0,.7.7h17a.7.7,0,0,0,0-1.4h-17A.7.7,0,0,0,177.21,44.35Zm0,0a.7.7,0,0,0,.7.7h17a.7.7,0,0,0,0-1.4h-17A.7.7,0,0,0,177.21,44.35ZM75.52,22c3,5.18,6.36,3.76,11.29,4.93,1.65.39,8.87,1,17.71,1.61A45.49,45.49,0,0,0,101.2,21c-1.55-2.44.39-2.63.39-2.63,27.11-5.19,43.26,5.82,43.26,5.82,2.91-1.68,8.1,1.57,8.1,1.57s1.56,1.3.91,4.15c-.14.63.44,1.09,1.45,1.43,3.54,1.17,12.34.82,13.4,1,0,0-30.54-17.31-47.53-17.7S72.54,16.78,75.52,22Zm10.8.26s5.57-1.89,5.74-1.65c2.77,3.89,1.66,5.73,1.66,5.73s-5.84-.67-7.4-2.23S86.32,22.23,86.32,22.23Zm90.89,22.12a.7.7,0,0,0,.7.7h17a.7.7,0,0,0,0-1.4h-17A.7.7,0,0,0,177.21,44.35ZM75.52,22c3,5.18,6.36,3.76,11.29,4.93,1.65.39,8.87,1,17.71,1.61A45.49,45.49,0,0,0,101.2,21c-1.55-2.44.39-2.63.39-2.63,27.11-5.19,43.26,5.82,43.26,5.82,2.91-1.68,8.1,1.57,8.1,1.57s1.56,1.3.91,4.15c-.14.63.44,1.09,1.45,1.43,3.54,1.17,12.34.82,13.4,1,0,0-30.54-17.31-47.53-17.7S72.54,16.78,75.52,22Zm10.8.26s5.57-1.89,5.74-1.65c2.77,3.89,1.66,5.73,1.66,5.73s-5.84-.67-7.4-2.23S86.32,22.23,86.32,22.23Zm90.89,22.12a.7.7,0,0,0,.7.7h17a.7.7,0,0,0,0-1.4h-17A.7.7,0,0,0,177.21,44.35ZM75.52,22c3,5.18,6.36,3.76,11.29,4.93,1.65.39,8.87,1,17.71,1.61A45.49,45.49,0,0,0,101.2,21c-1.55-2.44.39-2.63.39-2.63,27.11-5.19,43.26,5.82,43.26,5.82,2.91-1.68,8.1,1.57,8.1,1.57s1.56,1.3.91,4.15c-.14.63.44,1.09,1.45,1.43,3.54,1.17,12.34.82,13.4,1,0,0-30.54-17.31-47.53-17.7S72.54,16.78,75.52,22Zm10.8.26s5.57-1.89,5.74-1.65c2.77,3.89,1.66,5.73,1.66,5.73s-5.84-.67-7.4-2.23S86.32,22.23,86.32,22.23Zm90.89,22.12a.7.7,0,0,0,.7.7h17a.7.7,0,0,0,0-1.4h-17A.7.7,0,0,0,177.21,44.35ZM75.52,22c3,5.18,6.36,3.76,11.29,4.93,1.65.39,8.87,1,17.71,1.61A45.49,45.49,0,0,0,101.2,21c-1.55-2.44.39-2.63.39-2.63,27.11-5.19,43.26,5.82,43.26,5.82,2.91-1.68,8.1,1.57,8.1,1.57s1.56,1.3.91,4.15c-.14.63.44,1.09,1.45,1.43,3.54,1.17,12.34.82,13.4,1,0,0-30.54-17.31-47.53-17.7S72.54,16.78,75.52,22Zm10.8.26s5.57-1.89,5.74-1.65c2.77,3.89,1.66,5.73,1.66,5.73s-5.84-.67-7.4-2.23S86.32,22.23,86.32,22.23Zm90.89,22.12a.7.7,0,0,0,.7.7h17a.7.7,0,0,0,0-1.4h-17A.7.7,0,0,0,177.21,44.35ZM75.52,22c3,5.18,6.36,3.76,11.29,4.93,1.65.39,8.87,1,17.71,1.61A45.49,45.49,0,0,0,101.2,21c-1.55-2.44.39-2.63.39-2.63,27.11-5.19,43.26,5.82,43.26,5.82,2.91-1.68,8.1,1.57,8.1,1.57s1.56,1.3.91,4.15c-.14.63.44,1.09,1.45,1.43,3.54,1.17,12.34.82,13.4,1,0,0-30.54-17.31-47.53-17.7S72.54,16.78,75.52,22Zm10.8.26s5.57-1.89,5.74-1.65c2.77,3.89,1.66,5.73,1.66,5.73s-5.84-.67-7.4-2.23S86.32,22.23,86.32,22.23Zm90.89,22.12a.7.7,0,0,0,.7.7h17a.7.7,0,0,0,0-1.4h-17A.7.7,0,0,0,177.21,44.35ZM75.52,22c3,5.18,6.36,3.76,11.29,4.93,1.65.39,8.87,1,17.71,1.61A45.49,45.49,0,0,0,101.2,21c-1.55-2.44.39-2.63.39-2.63,27.11-5.19,43.26,5.82,43.26,5.82,2.91-1.68,8.1,1.57,8.1,1.57s1.56,1.3.91,4.15c-.14.63.44,1.09,1.45,1.43,3.54,1.17,12.34.82,13.4,1,0,0-30.54-17.31-47.53-17.7S72.54,16.78,75.52,22Zm10.8.26s5.57-1.89,5.74-1.65c2.77,3.89,1.66,5.73,1.66,5.73s-5.84-.67-7.4-2.23S86.32,22.23,86.32,22.23ZM15.51,64.34C12.19,67.66,34,72.51,34,72.51S27.37,41.39,56.46,41.39,82,74.66,82,74.66c-.2,2,.88,2,.88,2,2.91-1.75,111.14,1.42,111.14,1.42l.91-.74c.39-12.54,2.73-34.14,27.24-34.14s21.14,34,21.14,34c3.05.65,14.27-2.07,14.27-2.07,1-3.57,3.11-2.53,3.11-2.53l.59-4.42c1.75.33.71-1.81.71-1.81a7.05,7.05,0,0,0,.65-5.38c.32-4.28,0-10.83,0-10.83-20.1-17.9-81.19-20.88-81.19-20.88-2-.11-22.44-9.72-22.44-9.72C126.63,3.29,89.66,10.55,81,12.24S27.66,24.86,27.66,24.86A38.24,38.24,0,0,0,18,22.62c-4.57-.3-2.33,3.5-2.33,3.5l2.14,4.57a31.72,31.72,0,0,0,7.09,3.13h0a11.46,11.46,0,0,0,3.2.46c4.28-.09-.1,5.73-4.08,5.88a58.5,58.5,0,0,1-9.93-.92l-2,1.85C7.91,54,15.51,64.34,15.51,64.34ZM145.3,32.28l-56-3.53L76.43,26.31l-4.11-4.77s-10.09-6.64,44.74-8.17c0,0,11.77-1.24,31.61,7.18s22.7,12.32,22.7,12.32.59.64-1,.77-13,0-13,0Zm-39.06,3.81h9a1.14,1.14,0,1,1,0,2.28h-9a1.14,1.14,0,1,1,0-2.28Zm67.33,33.48S120,68.14,110,65.42c-9.67-2.64-11.56-20.59-11.67-21.71.69,3.33,5.32,12.95,5.32,12.95,5.45,10.57,20.1,10.06,20.1,10.06L172,68.27c1.94-4.19,1.55-21.49,1.55-21.49C175.65,51.74,173.57,69.57,173.57,69.57ZM244,43.65s11.09,1,17,8A30.8,30.8,0,0,1,244,43.65ZM196.87,56.13c0-.11.11-.23.17-.34.47-.89,1-1.74,1.47-2.54.22-.35.43-.69.66-1,.57-.85,1.13-1.64,1.73-2.38.15-.2.32-.4.48-.6.4-.49.8-1,1.21-1.39.24-.25.47-.5.71-.73l.14-.14.57-.55.54-.49c.2-.17.4-.35.6-.51l.36-.29.15-.11a5.67,5.67,0,0,1,.5-.39c.16-.13.32-.24.48-.35h0l.29-.21.35-.23a2.3,2.3,0,0,1,.33-.21c.19-.13.39-.25.58-.36.54-.32,1.09-.6,1.63-.86.24-.12.47-.23.72-.33q.73-.32,1.47-.57l.73-.24.72-.2c.25-.07.48-.13.73-.18s.42-.1.63-.13l.24-.05.76-.12a5,5,0,0,1,.54-.07l.71-.08,1.07-.07c.35,0,.7,0,1,0s.73,0,1.08,0h.14l.7,0,.56.05c.35,0,.7.06,1.05.11s.64.09.95.15.54.08.8.14l.78.15c.25.06.51.11.76.18l.74.17,1.87.53c.9.28,1.73.56,2.49.82l.74.26,1.9.65c6.49,2.1,6,0,6,0-15.28-6.54-35.66-7.55-35.66-7.55,13.87-.64,36.05,4.8,37,6.49s6.48,7.91,12.45,9,9.35,3.7,4.28,3.31-10.12,2.59-10.12,2.59h-4.15s-5.06-15.43-22.44-16c-.53,0-1,0-1.57,0l-.75,0c-.36,0-.71.06-1.05.09a4.07,4.07,0,0,0-.61.07H217l-.69.11c-.39.06-.77.12-1.14.2l-1.06.25c-.17,0-.32.07-.48.12l-1.32.41c-.31.1-.63.22-.94.34s-.57.22-.85.35c-.13.06-.28.11-.41.18l-.4.18-1,.49c-.44.24-.87.48-1.28.73l-.85.54c-.41.27-.81.54-1.18.82l-.4.3-.39.3a30.73,30.73,0,0,0-3.92,3.74l-.4.47c-.53.61-1,1.22-1.42,1.79l-.22.29c-.2.28-.38.54-.55.8s-.15.22-.22.33c-.25.37-.46.71-.66,1l-.25.42A2,2,0,0,0,196.87,56.13Zm-5.07-8.42c-3.44.39-15.37.72-16.22-1.55s1.69-4.74,1.69-4.74,23,.25,21.34,2.23C198.61,43.65,195.23,47.32,191.8,47.71ZM86.29,71.51a61.64,61.64,0,0,1,13.36-1.3c6.74,0,80.28,2.6,80.28,2.6s16.34.91,12.06,2.59L85,73.2S82.39,72.19,86.29,71.51ZM59.18,40.32S64.43,39,75.52,44.5c0,0,.39-4.28,12.94-4.33,12.16,0,80.66,3.26,84.91,3.47C169,43.51,95.24,41.32,91.22,42c0,0,8.1,3.89-9.08,14.65C82.14,56.66,76.21,41,59.18,40.32ZM12.4,47.81s-.7-3.65,1-6c0,0,15.86,6.71,24,4.57,0,0-4.67,4.58-5.15,11,0,.29-2.72-.68-4.38-2.62S21.73,48.39,12.4,47.81Zm142.91-16.5c3.54,1.17,12.34.82,13.4,1,0,0-30.54-17.31-47.53-17.7S72.54,16.78,75.52,22s6.36,3.76,11.29,4.93c1.65.39,8.87,1,17.71,1.61A45.49,45.49,0,0,0,101.2,21c-1.55-2.44.39-2.63.39-2.63,27.11-5.19,43.26,5.82,43.26,5.82,2.91-1.68,8.1,1.57,8.1,1.57s1.56,1.3.91,4.15C153.72,30.51,154.3,31,155.31,31.31Zm-61.59-5s-5.84-.67-7.4-2.23,0-1.85,0-1.85,5.57-1.89,5.74-1.65C94.83,24.47,93.72,26.31,93.72,26.31Zm84.19,18.74h17a.7.7,0,0,0,0-1.4h-17a.7.7,0,1,0,0,1.4ZM75.52,22c3,5.18,6.36,3.76,11.29,4.93,1.65.39,8.87,1,17.71,1.61A45.49,45.49,0,0,0,101.2,21c-1.55-2.44.39-2.63.39-2.63,27.11-5.19,43.26,5.82,43.26,5.82,2.91-1.68,8.1,1.57,8.1,1.57s1.56,1.3.91,4.15c-.14.63.44,1.09,1.45,1.43,3.54,1.17,12.34.82,13.4,1,0,0-30.54-17.31-47.53-17.7S72.54,16.78,75.52,22Zm10.8.26s5.57-1.89,5.74-1.65c2.77,3.89,1.66,5.73,1.66,5.73s-5.84-.67-7.4-2.23S86.32,22.23,86.32,22.23Zm90.89,22.12a.7.7,0,0,0,.7.7h17a.7.7,0,0,0,0-1.4h-17A.7.7,0,0,0,177.21,44.35ZM75.52,22c3,5.18,6.36,3.76,11.29,4.93,1.65.39,8.87,1,17.71,1.61A45.49,45.49,0,0,0,101.2,21c-1.55-2.44.39-2.63.39-2.63,27.11-5.19,43.26,5.82,43.26,5.82,2.91-1.68,8.1,1.57,8.1,1.57s1.56,1.3.91,4.15c-.14.63.44,1.09,1.45,1.43,3.54,1.17,12.34.82,13.4,1,0,0-30.54-17.31-47.53-17.7S72.54,16.78,75.52,22Zm10.8.26s5.57-1.89,5.74-1.65c2.77,3.89,1.66,5.73,1.66,5.73s-5.84-.67-7.4-2.23S86.32,22.23,86.32,22.23Zm90.89,22.12a.7.7,0,0,0,.7.7h17a.7.7,0,0,0,0-1.4h-17A.7.7,0,0,0,177.21,44.35ZM75.52,22c3,5.18,6.36,3.76,11.29,4.93,1.65.39,8.87,1,17.71,1.61A45.49,45.49,0,0,0,101.2,21c-1.55-2.44.39-2.63.39-2.63,27.11-5.19,43.26,5.82,43.26,5.82,2.91-1.68,8.1,1.57,8.1,1.57s1.56,1.3.91,4.15c-.14.63.44,1.09,1.45,1.43,3.54,1.17,12.34.82,13.4,1,0,0-30.54-17.31-47.53-17.7S72.54,16.78,75.52,22Zm10.8.26s5.57-1.89,5.74-1.65c2.77,3.89,1.66,5.73,1.66,5.73s-5.84-.67-7.4-2.23S86.32,22.23,86.32,22.23Zm90.89,22.12a.7.7,0,0,0,.7.7h17a.7.7,0,0,0,0-1.4h-17A.7.7,0,0,0,177.21,44.35ZM75.52,22c3,5.18,6.36,3.76,11.29,4.93,1.65.39,8.87,1,17.71,1.61A45.49,45.49,0,0,0,101.2,21c-1.55-2.44.39-2.63.39-2.63,27.11-5.19,43.26,5.82,43.26,5.82,2.91-1.68,8.1,1.57,8.1,1.57s1.56,1.3.91,4.15c-.14.63.44,1.09,1.45,1.43,3.54,1.17,12.34.82,13.4,1,0,0-30.54-17.31-47.53-17.7S72.54,16.78,75.52,22Zm10.8.26s5.57-1.89,5.74-1.65c2.77,3.89,1.66,5.73,1.66,5.73s-5.84-.67-7.4-2.23S86.32,22.23,86.32,22.23Zm90.89,22.12a.7.7,0,0,0,.7.7h17a.7.7,0,0,0,0-1.4h-17A.7.7,0,0,0,177.21,44.35ZM75.52,22c3,5.18,6.36,3.76,11.29,4.93,1.65.39,8.87,1,17.71,1.61A45.49,45.49,0,0,0,101.2,21c-1.55-2.44.39-2.63.39-2.63,27.11-5.19,43.26,5.82,43.26,5.82,2.91-1.68,8.1,1.57,8.1,1.57s1.56,1.3.91,4.15c-.14.63.44,1.09,1.45,1.43,3.54,1.17,12.34.82,13.4,1,0,0-30.54-17.31-47.53-17.7S72.54,16.78,75.52,22Zm10.8.26s5.57-1.89,5.74-1.65c2.77,3.89,1.66,5.73,1.66,5.73s-5.84-.67-7.4-2.23S86.32,22.23,86.32,22.23Zm90.89,22.12a.7.7,0,0,0,.7.7h17a.7.7,0,0,0,0-1.4h-17A.7.7,0,0,0,177.21,44.35ZM75.52,22c3,5.18,6.36,3.76,11.29,4.93,1.65.39,8.87,1,17.71,1.61A45.49,45.49,0,0,0,101.2,21c-1.55-2.44.39-2.63.39-2.63,27.11-5.19,43.26,5.82,43.26,5.82,2.91-1.68,8.1,1.57,8.1,1.57s1.56,1.3.91,4.15c-.14.63.44,1.09,1.45,1.43,3.54,1.17,12.34.82,13.4,1,0,0-30.54-17.31-47.53-17.7S72.54,16.78,75.52,22Zm10.8.26s5.57-1.89,5.74-1.65c2.77,3.89,1.66,5.73,1.66,5.73s-5.84-.67-7.4-2.23S86.32,22.23,86.32,22.23Zm90.89,22.12a.7.7,0,0,0,.7.7h17a.7.7,0,0,0,0-1.4h-17A.7.7,0,0,0,177.21,44.35Zm0,0a.7.7,0,0,0,.7.7h17a.7.7,0,0,0,0-1.4h-17A.7.7,0,0,0,177.21,44.35Zm0,0a.7.7,0,0,0,.7.7h17a.7.7,0,0,0,0-1.4h-17A.7.7,0,0,0,177.21,44.35Zm0,0a.7.7,0,0,0,.7.7h17a.7.7,0,0,0,0-1.4h-17A.7.7,0,0,0,177.21,44.35Zm0,0a.7.7,0,0,0,.7.7h17a.7.7,0,0,0,0-1.4h-17A.7.7,0,0,0,177.21,44.35Zm0,0a.7.7,0,0,0,.7.7h17a.7.7,0,0,0,0-1.4h-17A.7.7,0,0,0,177.21,44.35Zm0,0a.7.7,0,0,0,.7.7h17a.7.7,0,0,0,0-1.4h-17A.7.7,0,0,0,177.21,44.35Zm-36-13.69c-2.15-1.56-.07-4-.07-4-2.5-.25-2.4,3.5-2.4,3.5-4.28.33-33.4-2.18-33.4-2.18C128.18,31.73,141.22,30.66,141.22,30.66Z"/><path d="M260.92,70.71A2.24,2.24,0,0,0,258.87,73l-13.25,2.39S270,74.74,260.92,70.71Z"/><path d="M196.23,57.32l.18-.35C196.33,57.11,196.27,57.24,196.23,57.32Z"/><path d="M177.21,44.35a.7.7,0,0,0,.7.7h17a.7.7,0,0,0,0-1.4h-17A.7.7,0,0,0,177.21,44.35Z"/><path d="M177.21,44.35a.7.7,0,0,0,.7.7h17a.7.7,0,0,0,0-1.4h-17A.7.7,0,0,0,177.21,44.35Z"/><path d="M75.52,22c3,5.18,6.36,3.76,11.29,4.93,1.65.39,8.87,1,17.71,1.61A45.49,45.49,0,0,0,101.2,21c-1.55-2.44.39-2.63.39-2.63,27.11-5.19,43.26,5.82,43.26,5.82,2.91-1.68,8.1,1.57,8.1,1.57s1.56,1.3.91,4.15c-.14.63.44,1.09,1.45,1.43,3.54,1.17,12.34.82,13.4,1,0,0-30.54-17.31-47.53-17.7S72.54,16.78,75.52,22Zm10.8.26s5.57-1.89,5.74-1.65c2.77,3.89,1.66,5.73,1.66,5.73s-5.84-.67-7.4-2.23S86.32,22.23,86.32,22.23Z"/><path d="M104.52,28.51A45.49,45.49,0,0,0,101.2,21c-1.55-2.44.39-2.63.39-2.63,27.11-5.19,43.26,5.82,43.26,5.82,2.91-1.68,8.1,1.57,8.1,1.57s1.56,1.3.91,4.15c-.14.63.44,1.09,1.45,1.43,3.54,1.17,12.34.82,13.4,1,0,0-30.54-17.31-47.53-17.7S72.54,16.78,75.52,22s6.36,3.76,11.29,4.93c1.65.39,8.87,1,17.71,1.61m-18.2-6.28s5.57-1.89,5.74-1.65c2.77,3.89,1.66,5.73,1.66,5.73s-5.84-.67-7.4-2.23S86.32,22.23,86.32,22.23Z"/><path d="M144.78,24.43s-2,2.69-1,5.58,9.24,1.49,9.27.62,1.65-3.64-2-5.26A10.37,10.37,0,0,0,144.78,24.43Z"/><path d="M218.69,68.86h0v0Zm0,0h0v0Zm0,0h0v0Zm0,0h0v0Zm0,0h0v0Zm0,0h0v0Zm0,0h0v0Zm0,0h0v0Zm0,0h0v0Zm0,0h0v0ZM204.06,66.7a16.39,16.39,0,0,0,.17,2.33c.81-1.15,3.62-3.31,13.06-2.52a2.06,2.06,0,0,1,.33-1c-8.47-4.69-9.45-8-9.45-9.31A15.48,15.48,0,0,0,204.06,66.7Zm17.93,0a2.26,2.26,0,0,1,0,.26c9.41,0,12,2.43,12.73,3.65a15.49,15.49,0,0,0-2.8-13.46c.06,1-.62,4.44-10.09,8.69A2.06,2.06,0,0,1,222,66.7Zm.11,15.38a15.59,15.59,0,0,0,11.05-7.65c-1.3.4-4.85.45-11.85-6.06a2.15,2.15,0,0,1-.94.56C224.08,77.74,222.9,81,222.1,82.08Zm-3.41-13.22h0v0Zm-5.83-16.18c1,.15,4.2,1.46,6.38,11.69a2.38,2.38,0,0,1,.39,0,2.1,2.1,0,0,1,.74.13c2-9.19,4.88-11.24,6.22-11.7a15.57,15.57,0,0,0-13.73-.09Zm-7.52,20.21a15.57,15.57,0,0,0,10.12,8.81c-.67-1.34-1.25-4.86,3.23-12.84a2.26,2.26,0,0,1-.86-.64C209.78,74.19,206.39,73.46,205.34,72.89Zm-1.28-6.19a16.39,16.39,0,0,0,.17,2.33c.81-1.15,3.62-3.31,13.06-2.52a2.06,2.06,0,0,1,.33-1c-8.47-4.69-9.45-8-9.45-9.31A15.48,15.48,0,0,0,204.06,66.7Zm1.28,6.19a15.57,15.57,0,0,0,10.12,8.81c-.67-1.34-1.25-4.86,3.23-12.84a2.26,2.26,0,0,1-.86-.64C209.78,74.19,206.39,73.46,205.34,72.89Zm7.52-20.21c1,.15,4.2,1.46,6.38,11.69a2.38,2.38,0,0,1,.39,0,2.1,2.1,0,0,1,.74.13c2-9.19,4.88-11.24,6.22-11.7a15.57,15.57,0,0,0-13.73-.09Zm5.83,16.18h0v0Zm3.41,13.22a15.59,15.59,0,0,0,11.05-7.65c-1.3.4-4.85.45-11.85-6.06a2.15,2.15,0,0,1-.94.56C224.08,77.74,222.9,81,222.1,82.08ZM222,66.7a2.26,2.26,0,0,1,0,.26c9.41,0,12,2.43,12.73,3.65a15.49,15.49,0,0,0-2.8-13.46c.06,1-.62,4.44-10.09,8.69A2.06,2.06,0,0,1,222,66.7Zm-17.93,0a16.39,16.39,0,0,0,.17,2.33c.81-1.15,3.62-3.31,13.06-2.52a2.06,2.06,0,0,1,.33-1c-8.47-4.69-9.45-8-9.45-9.31A15.48,15.48,0,0,0,204.06,66.7Zm17.93,0a2.26,2.26,0,0,1,0,.26c9.41,0,12,2.43,12.73,3.65a15.49,15.49,0,0,0-2.8-13.46c.06,1-.62,4.44-10.09,8.69A2.06,2.06,0,0,1,222,66.7Zm.11,15.38a15.59,15.59,0,0,0,11.05-7.65c-1.3.4-4.85.45-11.85-6.06a2.15,2.15,0,0,1-.94.56C224.08,77.74,222.9,81,222.1,82.08Zm-3.41-13.22h0v0Zm-5.83-16.18c1,.15,4.2,1.46,6.38,11.69a2.38,2.38,0,0,1,.39,0,2.1,2.1,0,0,1,.74.13c2-9.19,4.88-11.24,6.22-11.7a15.57,15.57,0,0,0-13.73-.09Zm-7.52,20.21a15.57,15.57,0,0,0,10.12,8.81c-.67-1.34-1.25-4.86,3.23-12.84a2.26,2.26,0,0,1-.86-.64C209.78,74.19,206.39,73.46,205.34,72.89Zm-1.28-6.19a16.39,16.39,0,0,0,.17,2.33c.81-1.15,3.62-3.31,13.06-2.52a2.06,2.06,0,0,1,.33-1c-8.47-4.69-9.45-8-9.45-9.31A15.48,15.48,0,0,0,204.06,66.7Zm1.28,6.19a15.57,15.57,0,0,0,10.12,8.81c-.67-1.34-1.25-4.86,3.23-12.84a2.26,2.26,0,0,1-.86-.64C209.78,74.19,206.39,73.46,205.34,72.89Zm7.52-20.21c1,.15,4.2,1.46,6.38,11.69a2.38,2.38,0,0,1,.39,0,2.1,2.1,0,0,1,.74.13c2-9.19,4.88-11.24,6.22-11.7a15.57,15.57,0,0,0-13.73-.09Zm5.83,16.18h0v0Zm3.41,13.22a15.59,15.59,0,0,0,11.05-7.65c-1.3.4-4.85.45-11.85-6.06a2.15,2.15,0,0,1-.94.56C224.08,77.74,222.9,81,222.1,82.08ZM222,66.7a2.26,2.26,0,0,1,0,.26c9.41,0,12,2.43,12.73,3.65a15.49,15.49,0,0,0-2.8-13.46c.06,1-.62,4.44-10.09,8.69A2.06,2.06,0,0,1,222,66.7Zm-17.93,0a16.39,16.39,0,0,0,.17,2.33c.81-1.15,3.62-3.31,13.06-2.52a2.06,2.06,0,0,1,.33-1c-8.47-4.69-9.45-8-9.45-9.31A15.48,15.48,0,0,0,204.06,66.7Zm17.93,0a2.26,2.26,0,0,1,0,.26c9.41,0,12,2.43,12.73,3.65a15.49,15.49,0,0,0-2.8-13.46c.06,1-.62,4.44-10.09,8.69A2.06,2.06,0,0,1,222,66.7Zm.11,15.38a15.59,15.59,0,0,0,11.05-7.65c-1.3.4-4.85.45-11.85-6.06a2.15,2.15,0,0,1-.94.56C224.08,77.74,222.9,81,222.1,82.08Zm-3.41-13.22h0v0Zm-5.83-16.18c1,.15,4.2,1.46,6.38,11.69a2.38,2.38,0,0,1,.39,0,2.1,2.1,0,0,1,.74.13c2-9.19,4.88-11.24,6.22-11.7a15.57,15.57,0,0,0-13.73-.09Zm-7.52,20.21a15.57,15.57,0,0,0,10.12,8.81c-.67-1.34-1.25-4.86,3.23-12.84a2.26,2.26,0,0,1-.86-.64C209.78,74.19,206.39,73.46,205.34,72.89Zm-1.28-6.19a16.39,16.39,0,0,0,.17,2.33c.81-1.15,3.62-3.31,13.06-2.52a2.06,2.06,0,0,1,.33-1c-8.47-4.69-9.45-8-9.45-9.31A15.48,15.48,0,0,0,204.06,66.7Zm1.28,6.19a15.57,15.57,0,0,0,10.12,8.81c-.67-1.34-1.25-4.86,3.23-12.84a2.26,2.26,0,0,1-.86-.64C209.78,74.19,206.39,73.46,205.34,72.89Zm7.52-20.21c1,.15,4.2,1.46,6.38,11.69a2.38,2.38,0,0,1,.39,0,2.1,2.1,0,0,1,.74.13c2-9.19,4.88-11.24,6.22-11.7a15.57,15.57,0,0,0-13.73-.09Zm5.83,16.18h0v0Zm3.41,13.22a15.59,15.59,0,0,0,11.05-7.65c-1.3.4-4.85.45-11.85-6.06a2.15,2.15,0,0,1-.94.56C224.08,77.74,222.9,81,222.1,82.08ZM222,66.7a2.26,2.26,0,0,1,0,.26c9.41,0,12,2.43,12.73,3.65a15.49,15.49,0,0,0-2.8-13.46c.06,1-.62,4.44-10.09,8.69A2.06,2.06,0,0,1,222,66.7Zm-17.93,0a16.39,16.39,0,0,0,.17,2.33c.81-1.15,3.62-3.31,13.06-2.52a2.06,2.06,0,0,1,.33-1c-8.47-4.69-9.45-8-9.45-9.31A15.48,15.48,0,0,0,204.06,66.7Zm17.93,0a2.26,2.26,0,0,1,0,.26c9.41,0,12,2.43,12.73,3.65a15.49,15.49,0,0,0-2.8-13.46c.06,1-.62,4.44-10.09,8.69A2.06,2.06,0,0,1,222,66.7Zm.11,15.38a15.59,15.59,0,0,0,11.05-7.65c-1.3.4-4.85.45-11.85-6.06a2.15,2.15,0,0,1-.94.56C224.08,77.74,222.9,81,222.1,82.08Zm-3.41-13.22h0v0Zm-5.83-16.18c1,.15,4.2,1.46,6.38,11.69a2.38,2.38,0,0,1,.39,0,2.1,2.1,0,0,1,.74.13c2-9.19,4.88-11.24,6.22-11.7a15.57,15.57,0,0,0-13.73-.09Zm-7.52,20.21a15.57,15.57,0,0,0,10.12,8.81c-.67-1.34-1.25-4.86,3.23-12.84a2.26,2.26,0,0,1-.86-.64C209.78,74.19,206.39,73.46,205.34,72.89Zm-1.28-6.19a16.39,16.39,0,0,0,.17,2.33c.81-1.15,3.62-3.31,13.06-2.52a2.06,2.06,0,0,1,.33-1c-8.47-4.69-9.45-8-9.45-9.31A15.48,15.48,0,0,0,204.06,66.7Zm1.28,6.19a15.57,15.57,0,0,0,10.12,8.81c-.67-1.34-1.25-4.86,3.23-12.84a2.26,2.26,0,0,1-.86-.64C209.78,74.19,206.39,73.46,205.34,72.89Zm7.52-20.21c1,.15,4.2,1.46,6.38,11.69a2.38,2.38,0,0,1,.39,0,2.1,2.1,0,0,1,.74.13c2-9.19,4.88-11.24,6.22-11.7a15.57,15.57,0,0,0-13.73-.09Zm5.83,16.18h0v0Zm3.41,13.22a15.59,15.59,0,0,0,11.05-7.65c-1.3.4-4.85.45-11.85-6.06a2.15,2.15,0,0,1-.94.56C224.08,77.74,222.9,81,222.1,82.08ZM222,66.7a2.26,2.26,0,0,1,0,.26c9.41,0,12,2.43,12.73,3.65a15.49,15.49,0,0,0-2.8-13.46c.06,1-.62,4.44-10.09,8.69A2.06,2.06,0,0,1,222,66.7Zm-17.93,0a16.39,16.39,0,0,0,.17,2.33c.81-1.15,3.62-3.31,13.06-2.52a2.06,2.06,0,0,1,.33-1c-8.47-4.69-9.45-8-9.45-9.31A15.48,15.48,0,0,0,204.06,66.7Zm17.93,0a2.26,2.26,0,0,1,0,.26c9.41,0,12,2.43,12.73,3.65a15.49,15.49,0,0,0-2.8-13.46c.06,1-.62,4.44-10.09,8.69A2.06,2.06,0,0,1,222,66.7Zm.11,15.38a15.59,15.59,0,0,0,11.05-7.65c-1.3.4-4.85.45-11.85-6.06a2.15,2.15,0,0,1-.94.56C224.08,77.74,222.9,81,222.1,82.08Zm-3.41-13.22h0v0Zm-5.83-16.18c1,.15,4.2,1.46,6.38,11.69a2.38,2.38,0,0,1,.39,0,2.1,2.1,0,0,1,.74.13c2-9.19,4.88-11.24,6.22-11.7a15.57,15.57,0,0,0-13.73-.09Zm-7.52,20.21a15.57,15.57,0,0,0,10.12,8.81c-.67-1.34-1.25-4.86,3.23-12.84a2.26,2.26,0,0,1-.86-.64C209.78,74.19,206.39,73.46,205.34,72.89Zm-1.28-6.19a16.39,16.39,0,0,0,.17,2.33c.81-1.15,3.62-3.31,13.06-2.52a2.06,2.06,0,0,1,.33-1c-8.47-4.69-9.45-8-9.45-9.31A15.48,15.48,0,0,0,204.06,66.7Zm1.28,6.19a15.57,15.57,0,0,0,10.12,8.81c-.67-1.34-1.25-4.86,3.23-12.84a2.26,2.26,0,0,1-.86-.64C209.78,74.19,206.39,73.46,205.34,72.89Zm7.52-20.21c1,.15,4.2,1.46,6.38,11.69a2.38,2.38,0,0,1,.39,0,2.1,2.1,0,0,1,.74.13c2-9.19,4.88-11.24,6.22-11.7a15.57,15.57,0,0,0-13.73-.09Zm5.83,16.18h0v0Zm3.41,13.22a15.59,15.59,0,0,0,11.05-7.65c-1.3.4-4.85.45-11.85-6.06a2.15,2.15,0,0,1-.94.56C224.08,77.74,222.9,81,222.1,82.08ZM222,66.7a2.26,2.26,0,0,1,0,.26c9.41,0,12,2.43,12.73,3.65a15.49,15.49,0,0,0-2.8-13.46c.06,1-.62,4.44-10.09,8.69A2.06,2.06,0,0,1,222,66.7Zm-17.93,0a16.39,16.39,0,0,0,.17,2.33c.81-1.15,3.62-3.31,13.06-2.52a2.06,2.06,0,0,1,.33-1c-8.47-4.69-9.45-8-9.45-9.31A15.48,15.48,0,0,0,204.06,66.7Zm17.93,0a2.26,2.26,0,0,1,0,.26c9.41,0,12,2.43,12.73,3.65a15.49,15.49,0,0,0-2.8-13.46c.06,1-.62,4.44-10.09,8.69A2.06,2.06,0,0,1,222,66.7Zm.11,15.38a15.59,15.59,0,0,0,11.05-7.65c-1.3.4-4.85.45-11.85-6.06a2.15,2.15,0,0,1-.94.56C224.08,77.74,222.9,81,222.1,82.08Zm-3.41-13.22h0v0Zm-5.83-16.18c1,.15,4.2,1.46,6.38,11.69a2.38,2.38,0,0,1,.39,0,2.1,2.1,0,0,1,.74.13c2-9.19,4.88-11.24,6.22-11.7a15.57,15.57,0,0,0-13.73-.09Zm-7.52,20.21a15.57,15.57,0,0,0,10.12,8.81c-.67-1.34-1.25-4.86,3.23-12.84a2.26,2.26,0,0,1-.86-.64C209.78,74.19,206.39,73.46,205.34,72.89Zm-1.28-6.19a16.39,16.39,0,0,0,.17,2.33c.81-1.15,3.62-3.31,13.06-2.52a2.06,2.06,0,0,1,.33-1c-8.47-4.69-9.45-8-9.45-9.31A15.48,15.48,0,0,0,204.06,66.7Zm1.28,6.19a15.57,15.57,0,0,0,10.12,8.81c-.67-1.34-1.25-4.86,3.23-12.84a2.26,2.26,0,0,1-.86-.64C209.78,74.19,206.39,73.46,205.34,72.89Zm13.9-8.52a2.38,2.38,0,0,1,.39,0,2.1,2.1,0,0,1,.74.13c2-9.19,4.88-11.24,6.22-11.7a15.57,15.57,0,0,0-13.73-.09C213.85,52.83,217.06,54.14,219.24,64.37Zm-.53,4.46,0,0h0Zm1.65.1c3.72,8.81,2.54,12.07,1.74,13.15a15.59,15.59,0,0,0,11.05-7.65c-1.3.4-4.85.45-11.85-6.06A2.15,2.15,0,0,1,220.36,68.93ZM222,67c9.41,0,12,2.43,12.73,3.65a15.49,15.49,0,0,0-2.8-13.46c.06,1-.62,4.44-10.09,8.69a2.06,2.06,0,0,1,.17.86A2.26,2.26,0,0,1,222,67Zm-17.92-.26a16.39,16.39,0,0,0,.17,2.33c.81-1.15,3.62-3.31,13.06-2.52a2.06,2.06,0,0,1,.33-1c-8.47-4.69-9.45-8-9.45-9.31A15.48,15.48,0,0,0,204.06,66.7Zm-4.86,0a20.43,20.43,0,1,0,20.43-20.43A20.43,20.43,0,0,0,199.2,66.7Zm3.91,0a16.52,16.52,0,1,1,16.52,16.51A16.52,16.52,0,0,1,203.11,66.7Zm2.23,6.19a15.57,15.57,0,0,0,10.12,8.81c-.67-1.34-1.25-4.86,3.23-12.84a2.26,2.26,0,0,1-.86-.64C209.78,74.19,206.39,73.46,205.34,72.89Zm13.9-8.52a2.38,2.38,0,0,1,.39,0,2.1,2.1,0,0,1,.74.13c2-9.19,4.88-11.24,6.22-11.7a15.57,15.57,0,0,0-13.73-.09C213.85,52.83,217.06,54.14,219.24,64.37Zm-.53,4.46,0,0h0Zm1.65.1c3.72,8.81,2.54,12.07,1.74,13.15a15.59,15.59,0,0,0,11.05-7.65c-1.3.4-4.85.45-11.85-6.06A2.15,2.15,0,0,1,220.36,68.93ZM222,67c9.41,0,12,2.43,12.73,3.65a15.49,15.49,0,0,0-2.8-13.46c.06,1-.62,4.44-10.09,8.69a2.06,2.06,0,0,1,.17.86A2.26,2.26,0,0,1,222,67Zm-17.92-.26a16.39,16.39,0,0,0,.17,2.33c.81-1.15,3.62-3.31,13.06-2.52a2.06,2.06,0,0,1,.33-1c-8.47-4.69-9.45-8-9.45-9.31A15.48,15.48,0,0,0,204.06,66.7Zm17.93,0a2.26,2.26,0,0,1,0,.26c9.41,0,12,2.43,12.73,3.65a15.49,15.49,0,0,0-2.8-13.46c.06,1-.62,4.44-10.09,8.69A2.06,2.06,0,0,1,222,66.7Zm.11,15.38a15.59,15.59,0,0,0,11.05-7.65c-1.3.4-4.85.45-11.85-6.06a2.15,2.15,0,0,1-.94.56C224.08,77.74,222.9,81,222.1,82.08Zm-3.41-13.22h0v0Zm-5.83-16.18c1,.15,4.2,1.46,6.38,11.69a2.38,2.38,0,0,1,.39,0,2.1,2.1,0,0,1,.74.13c2-9.19,4.88-11.24,6.22-11.7a15.57,15.57,0,0,0-13.73-.09Zm-7.52,20.21a15.57,15.57,0,0,0,10.12,8.81c-.67-1.34-1.25-4.86,3.23-12.84a2.26,2.26,0,0,1-.86-.64C209.78,74.19,206.39,73.46,205.34,72.89Zm-1.28-6.19a16.39,16.39,0,0,0,.17,2.33c.81-1.15,3.62-3.31,13.06-2.52a2.06,2.06,0,0,1,.33-1c-8.47-4.69-9.45-8-9.45-9.31A15.48,15.48,0,0,0,204.06,66.7Zm1.28,6.19a15.57,15.57,0,0,0,10.12,8.81c-.67-1.34-1.25-4.86,3.23-12.84a2.26,2.26,0,0,1-.86-.64C209.78,74.19,206.39,73.46,205.34,72.89Zm7.52-20.21c1,.15,4.2,1.46,6.38,11.69a2.38,2.38,0,0,1,.39,0,2.1,2.1,0,0,1,.74.13c2-9.19,4.88-11.24,6.22-11.7a15.57,15.57,0,0,0-13.73-.09Zm5.83,16.18h0v0Zm3.41,13.22a15.59,15.59,0,0,0,11.05-7.65c-1.3.4-4.85.45-11.85-6.06a2.15,2.15,0,0,1-.94.56C224.08,77.74,222.9,81,222.1,82.08ZM222,66.7a2.26,2.26,0,0,1,0,.26c9.41,0,12,2.43,12.73,3.65a15.49,15.49,0,0,0-2.8-13.46c.06,1-.62,4.44-10.09,8.69A2.06,2.06,0,0,1,222,66.7Zm-17.93,0a16.39,16.39,0,0,0,.17,2.33c.81-1.15,3.62-3.31,13.06-2.52a2.06,2.06,0,0,1,.33-1c-8.47-4.69-9.45-8-9.45-9.31A15.48,15.48,0,0,0,204.06,66.7Zm17.93,0a2.26,2.26,0,0,1,0,.26c9.41,0,12,2.43,12.73,3.65a15.49,15.49,0,0,0-2.8-13.46c.06,1-.62,4.44-10.09,8.69A2.06,2.06,0,0,1,222,66.7Zm.11,15.38a15.59,15.59,0,0,0,11.05-7.65c-1.3.4-4.85.45-11.85-6.06a2.15,2.15,0,0,1-.94.56C224.08,77.74,222.9,81,222.1,82.08Zm-3.41-13.22h0v0Zm-5.83-16.18c1,.15,4.2,1.46,6.38,11.69a2.38,2.38,0,0,1,.39,0,2.1,2.1,0,0,1,.74.13c2-9.19,4.88-11.24,6.22-11.7a15.57,15.57,0,0,0-13.73-.09Zm-7.52,20.21a15.57,15.57,0,0,0,10.12,8.81c-.67-1.34-1.25-4.86,3.23-12.84a2.26,2.26,0,0,1-.86-.64C209.78,74.19,206.39,73.46,205.34,72.89Zm-1.28-6.19a16.39,16.39,0,0,0,.17,2.33c.81-1.15,3.62-3.31,13.06-2.52a2.06,2.06,0,0,1,.33-1c-8.47-4.69-9.45-8-9.45-9.31A15.48,15.48,0,0,0,204.06,66.7Zm1.28,6.19a15.57,15.57,0,0,0,10.12,8.81c-.67-1.34-1.25-4.86,3.23-12.84a2.26,2.26,0,0,1-.86-.64C209.78,74.19,206.39,73.46,205.34,72.89Zm7.52-20.21c1,.15,4.2,1.46,6.38,11.69a2.38,2.38,0,0,1,.39,0,2.1,2.1,0,0,1,.74.13c2-9.19,4.88-11.24,6.22-11.7a15.57,15.57,0,0,0-13.73-.09Zm5.83,16.18h0v0Zm3.41,13.22a15.59,15.59,0,0,0,11.05-7.65c-1.3.4-4.85.45-11.85-6.06a2.15,2.15,0,0,1-.94.56C224.08,77.74,222.9,81,222.1,82.08ZM222,66.7a2.26,2.26,0,0,1,0,.26c9.41,0,12,2.43,12.73,3.65a15.49,15.49,0,0,0-2.8-13.46c.06,1-.62,4.44-10.09,8.69A2.06,2.06,0,0,1,222,66.7Zm-17.93,0a16.39,16.39,0,0,0,.17,2.33c.81-1.15,3.62-3.31,13.06-2.52a2.06,2.06,0,0,1,.33-1c-8.47-4.69-9.45-8-9.45-9.31A15.48,15.48,0,0,0,204.06,66.7Zm17.93,0a2.26,2.26,0,0,1,0,.26c9.41,0,12,2.43,12.73,3.65a15.49,15.49,0,0,0-2.8-13.46c.06,1-.62,4.44-10.09,8.69A2.06,2.06,0,0,1,222,66.7Zm.11,15.38a15.59,15.59,0,0,0,11.05-7.65c-1.3.4-4.85.45-11.85-6.06a2.15,2.15,0,0,1-.94.56C224.08,77.74,222.9,81,222.1,82.08Zm-3.41-13.22h0v0Zm-5.83-16.18c1,.15,4.2,1.46,6.38,11.69a2.38,2.38,0,0,1,.39,0,2.1,2.1,0,0,1,.74.13c2-9.19,4.88-11.24,6.22-11.7a15.57,15.57,0,0,0-13.73-.09Zm-7.52,20.21a15.57,15.57,0,0,0,10.12,8.81c-.67-1.34-1.25-4.86,3.23-12.84a2.26,2.26,0,0,1-.86-.64C209.78,74.19,206.39,73.46,205.34,72.89Zm-1.28-6.19a16.39,16.39,0,0,0,.17,2.33c.81-1.15,3.62-3.31,13.06-2.52a2.06,2.06,0,0,1,.33-1c-8.47-4.69-9.45-8-9.45-9.31A15.48,15.48,0,0,0,204.06,66.7Zm1.28,6.19a15.57,15.57,0,0,0,10.12,8.81c-.67-1.34-1.25-4.86,3.23-12.84a2.26,2.26,0,0,1-.86-.64C209.78,74.19,206.39,73.46,205.34,72.89Zm7.52-20.21c1,.15,4.2,1.46,6.38,11.69a2.38,2.38,0,0,1,.39,0,2.1,2.1,0,0,1,.74.13c2-9.19,4.88-11.24,6.22-11.7a15.57,15.57,0,0,0-13.73-.09Zm5.83,16.18h0v0Zm3.41,13.22a15.59,15.59,0,0,0,11.05-7.65c-1.3.4-4.85.45-11.85-6.06a2.15,2.15,0,0,1-.94.56C224.08,77.74,222.9,81,222.1,82.08ZM222,66.7a2.26,2.26,0,0,1,0,.26c9.41,0,12,2.43,12.73,3.65a15.49,15.49,0,0,0-2.8-13.46c.06,1-.62,4.44-10.09,8.69A2.06,2.06,0,0,1,222,66.7Zm-17.93,0a16.39,16.39,0,0,0,.17,2.33c.81-1.15,3.62-3.31,13.06-2.52a2.06,2.06,0,0,1,.33-1c-8.47-4.69-9.45-8-9.45-9.31A15.48,15.48,0,0,0,204.06,66.7Zm17.93,0a2.26,2.26,0,0,1,0,.26c9.41,0,12,2.43,12.73,3.65a15.49,15.49,0,0,0-2.8-13.46c.06,1-.62,4.44-10.09,8.69A2.06,2.06,0,0,1,222,66.7Zm.11,15.38a15.59,15.59,0,0,0,11.05-7.65c-1.3.4-4.85.45-11.85-6.06a2.15,2.15,0,0,1-.94.56C224.08,77.74,222.9,81,222.1,82.08Zm-3.41-13.22h0v0Zm-5.83-16.18c1,.15,4.2,1.46,6.38,11.69a2.38,2.38,0,0,1,.39,0,2.1,2.1,0,0,1,.74.13c2-9.19,4.88-11.24,6.22-11.7a15.57,15.57,0,0,0-13.73-.09Zm-7.52,20.21a15.57,15.57,0,0,0,10.12,8.81c-.67-1.34-1.25-4.86,3.23-12.84a2.26,2.26,0,0,1-.86-.64C209.78,74.19,206.39,73.46,205.34,72.89Zm-1.28-6.19a16.39,16.39,0,0,0,.17,2.33c.81-1.15,3.62-3.31,13.06-2.52a2.06,2.06,0,0,1,.33-1c-8.47-4.69-9.45-8-9.45-9.31A15.48,15.48,0,0,0,204.06,66.7Zm1.28,6.19a15.57,15.57,0,0,0,10.12,8.81c-.67-1.34-1.25-4.86,3.23-12.84a2.26,2.26,0,0,1-.86-.64C209.78,74.19,206.39,73.46,205.34,72.89Zm7.52-20.21c1,.15,4.2,1.46,6.38,11.69a2.38,2.38,0,0,1,.39,0,2.1,2.1,0,0,1,.74.13c2-9.19,4.88-11.24,6.22-11.7a15.57,15.57,0,0,0-13.73-.09Zm5.83,16.18h0v0Zm3.41,13.22a15.59,15.59,0,0,0,11.05-7.65c-1.3.4-4.85.45-11.85-6.06a2.15,2.15,0,0,1-.94.56C224.08,77.74,222.9,81,222.1,82.08ZM222,66.7a2.26,2.26,0,0,1,0,.26c9.41,0,12,2.43,12.73,3.65a15.49,15.49,0,0,0-2.8-13.46c.06,1-.62,4.44-10.09,8.69A2.06,2.06,0,0,1,222,66.7Zm-17.93,0a16.39,16.39,0,0,0,.17,2.33c.81-1.15,3.62-3.31,13.06-2.52a2.06,2.06,0,0,1,.33-1c-8.47-4.69-9.45-8-9.45-9.31A15.48,15.48,0,0,0,204.06,66.7Zm17.93,0a2.26,2.26,0,0,1,0,.26c9.41,0,12,2.43,12.73,3.65a15.49,15.49,0,0,0-2.8-13.46c.06,1-.62,4.44-10.09,8.69A2.06,2.06,0,0,1,222,66.7Zm.11,15.38a15.59,15.59,0,0,0,11.05-7.65c-1.3.4-4.85.45-11.85-6.06a2.15,2.15,0,0,1-.94.56C224.08,77.74,222.9,81,222.1,82.08Zm-3.41-13.22h0v0Zm-5.83-16.18c1,.15,4.2,1.46,6.38,11.69a2.38,2.38,0,0,1,.39,0,2.1,2.1,0,0,1,.74.13c2-9.19,4.88-11.24,6.22-11.7a15.57,15.57,0,0,0-13.73-.09Zm-7.52,20.21a15.57,15.57,0,0,0,10.12,8.81c-.67-1.34-1.25-4.86,3.23-12.84a2.26,2.26,0,0,1-.86-.64C209.78,74.19,206.39,73.46,205.34,72.89Zm-1.28-6.19a16.39,16.39,0,0,0,.17,2.33c.81-1.15,3.62-3.31,13.06-2.52a2.06,2.06,0,0,1,.33-1c-8.47-4.69-9.45-8-9.45-9.31A15.48,15.48,0,0,0,204.06,66.7Zm1.28,6.19a15.57,15.57,0,0,0,10.12,8.81c-.67-1.34-1.25-4.86,3.23-12.84a2.26,2.26,0,0,1-.86-.64C209.78,74.19,206.39,73.46,205.34,72.89Zm7.52-20.21c1,.15,4.2,1.46,6.38,11.69a2.38,2.38,0,0,1,.39,0,2.1,2.1,0,0,1,.74.13c2-9.19,4.88-11.24,6.22-11.7a15.57,15.57,0,0,0-13.73-.09Zm5.83,16.18h0v0Zm3.41,13.22a15.59,15.59,0,0,0,11.05-7.65c-1.3.4-4.85.45-11.85-6.06a2.15,2.15,0,0,1-.94.56C224.08,77.74,222.9,81,222.1,82.08ZM222,66.7a2.26,2.26,0,0,1,0,.26c9.41,0,12,2.43,12.73,3.65a15.49,15.49,0,0,0-2.8-13.46c.06,1-.62,4.44-10.09,8.69A2.06,2.06,0,0,1,222,66.7Zm-17.93,0a16.39,16.39,0,0,0,.17,2.33c.81-1.15,3.62-3.31,13.06-2.52a2.06,2.06,0,0,1,.33-1c-8.47-4.69-9.45-8-9.45-9.31A15.48,15.48,0,0,0,204.06,66.7Zm17.93,0a2.26,2.26,0,0,1,0,.26c9.41,0,12,2.43,12.73,3.65a15.49,15.49,0,0,0-2.8-13.46c.06,1-.62,4.44-10.09,8.69A2.06,2.06,0,0,1,222,66.7Zm.11,15.38a15.59,15.59,0,0,0,11.05-7.65c-1.3.4-4.85.45-11.85-6.06a2.15,2.15,0,0,1-.94.56C224.08,77.74,222.9,81,222.1,82.08Zm-3.41-13.22h0v0Zm-5.83-16.18c1,.15,4.2,1.46,6.38,11.69a2.38,2.38,0,0,1,.39,0,2.1,2.1,0,0,1,.74.13c2-9.19,4.88-11.24,6.22-11.7a15.57,15.57,0,0,0-13.73-.09Zm-7.52,20.21a15.57,15.57,0,0,0,10.12,8.81c-.67-1.34-1.25-4.86,3.23-12.84a2.26,2.26,0,0,1-.86-.64C209.78,74.19,206.39,73.46,205.34,72.89Zm-1.28-6.19a16.39,16.39,0,0,0,.17,2.33c.81-1.15,3.62-3.31,13.06-2.52a2.06,2.06,0,0,1,.33-1c-8.47-4.69-9.45-8-9.45-9.31A15.48,15.48,0,0,0,204.06,66.7Zm1.28,6.19a15.57,15.57,0,0,0,10.12,8.81c-.67-1.34-1.25-4.86,3.23-12.84a2.26,2.26,0,0,1-.86-.64C209.78,74.19,206.39,73.46,205.34,72.89Zm7.52-20.21c1,.15,4.2,1.46,6.38,11.69a2.38,2.38,0,0,1,.39,0,2.1,2.1,0,0,1,.74.13c2-9.19,4.88-11.24,6.22-11.7a15.57,15.57,0,0,0-13.73-.09Zm5.83,16.18h0v0Zm3.41,13.22a15.59,15.59,0,0,0,11.05-7.65c-1.3.4-4.85.45-11.85-6.06a2.15,2.15,0,0,1-.94.56C224.08,77.74,222.9,81,222.1,82.08ZM222,66.7a2.26,2.26,0,0,1,0,.26c9.41,0,12,2.43,12.73,3.65a15.49,15.49,0,0,0-2.8-13.46c.06,1-.62,4.44-10.09,8.69A2.06,2.06,0,0,1,222,66.7Zm-3.3,2.16h0v0Zm0,0h0v0Zm0,0h0v0Zm0,0h0v0Zm0,0h0v0Zm0,0h0v0Zm0,0h0v0Zm0,0h0v0Zm0,0h0v0Zm0,0h0v0Z"/><path d="M222,66.7a2.26,2.26,0,0,1,0,.26c9.41,0,12,2.43,12.73,3.65a15.49,15.49,0,0,0-2.8-13.46c.06,1-.62,4.44-10.09,8.69A2.06,2.06,0,0,1,222,66.7Z"/><path d="M222.1,82.08a15.59,15.59,0,0,0,11.05-7.65c-1.3.4-4.85.45-11.85-6.06a2.15,2.15,0,0,1-.94.56C224.08,77.74,222.9,81,222.1,82.08Z"/><path d="M218.69,68.86h0v0Z"/><path d="M212.86,52.68c1,.15,4.2,1.46,6.38,11.69a2.38,2.38,0,0,1,.39,0,2.1,2.1,0,0,1,.74.13c2-9.19,4.88-11.24,6.22-11.7a15.57,15.57,0,0,0-13.73-.09Z"/><path d="M205.34,72.89a15.57,15.57,0,0,0,10.12,8.81c-.67-1.34-1.25-4.86,3.23-12.84a2.26,2.26,0,0,1-.86-.64C209.78,74.19,206.39,73.46,205.34,72.89Z"/><path d="M204.06,66.7a16.39,16.39,0,0,0,.17,2.33c.81-1.15,3.62-3.31,13.06-2.52a2.06,2.06,0,0,1,.33-1c-8.47-4.69-9.45-8-9.45-9.31A15.48,15.48,0,0,0,204.06,66.7Z"/><path d="M218.69,68.86h0v0Zm0,0h0v0Zm0,0h0v0Zm0,0h0v0Zm0,0h0v0Zm0,0h0v0Zm0,0h0v0Zm0,0h0v0Zm0,0h0v0Zm0,0h0v0ZM204.06,66.7a16.39,16.39,0,0,0,.17,2.33c.81-1.15,3.62-3.31,13.06-2.52a2.06,2.06,0,0,1,.33-1c-8.47-4.69-9.45-8-9.45-9.31A15.48,15.48,0,0,0,204.06,66.7Zm1.28,6.19a15.57,15.57,0,0,0,10.12,8.81c-.67-1.34-1.25-4.86,3.23-12.84a2.26,2.26,0,0,1-.86-.64C209.78,74.19,206.39,73.46,205.34,72.89Zm7.52-20.21c1,.15,4.2,1.46,6.38,11.69a2.38,2.38,0,0,1,.39,0,2.1,2.1,0,0,1,.74.13c2-9.19,4.88-11.24,6.22-11.7a15.57,15.57,0,0,0-13.73-.09Zm5.83,16.18h0v0Zm3.41,13.22a15.59,15.59,0,0,0,11.05-7.65c-1.3.4-4.85.45-11.85-6.06a2.15,2.15,0,0,1-.94.56C224.08,77.74,222.9,81,222.1,82.08ZM222,66.7a2.26,2.26,0,0,1,0,.26c9.41,0,12,2.43,12.73,3.65a15.49,15.49,0,0,0-2.8-13.46c.06,1-.62,4.44-10.09,8.69A2.06,2.06,0,0,1,222,66.7Zm-3.3,2.16h0v0Zm0,0h0v0Zm0,0h0v0Zm0,0h0v0Zm0,0h0v0Zm0,0h0v0Zm0,0h0v0Zm0,0h0v0Zm0,0h0v0Zm0,0h0v0Z"/><path d="M217.27,66.7a2.38,2.38,0,0,0,.53,1.49l0,0a2.26,2.26,0,0,0,.86.64l0,0v0a2.38,2.38,0,0,0,.93.19,2.08,2.08,0,0,0,.71-.12s0,0,0,0a2.15,2.15,0,0,0,.94-.56l0,0A2.29,2.29,0,0,0,222,67s0,0,0-.05a2.26,2.26,0,0,0,0-.26,2.06,2.06,0,0,0-.17-.86.19.19,0,0,0,0-.08,2.34,2.34,0,0,0-1.39-1.28h0a2.1,2.1,0,0,0-.74-.13,2.38,2.38,0,0,0-.39,0l-.07,0a2.28,2.28,0,0,0-1.53,1s0,0,0,0a2.06,2.06,0,0,0-.33,1,.06.06,0,0,0,0,0h0A.81.81,0,0,0,217.27,66.7Z"/><path d="M218.69,68.86h0v0Z"/><path d="M218.69,68.86h0v0Z"/><path d="M56.05,66.63h0v0Zm0,0h0v0Zm0,0h0v0Zm0,0h0v0Zm0,0h0v0Zm0,0h0v0Zm0,0h0v0Zm0,0h0v0Zm0,0h0v0Zm0,0h0v0ZM41.41,64.47a16.14,16.14,0,0,0,.18,2.32c.81-1.14,3.62-3.3,13-2.51a2.17,2.17,0,0,1,.34-1c-8.47-4.69-9.46-8-9.46-9.31A15.53,15.53,0,0,0,41.41,64.47Zm17.94,0c0,.08,0,.17,0,.25,9.41,0,12,2.44,12.73,3.65a15.61,15.61,0,0,0,.5-3.9,15.39,15.39,0,0,0-3.3-9.55c.06,1-.62,4.43-10.09,8.68A2.11,2.11,0,0,1,59.35,64.47Zm.11,15.37a15.56,15.56,0,0,0,11.05-7.65c-1.31.41-4.86.46-11.85-6.06a2.23,2.23,0,0,1-.94.57C61.44,75.5,60.26,78.77,59.46,79.84ZM56.05,66.63h0v0ZM50.22,50.44c1,.16,4.2,1.47,6.38,11.7a2.38,2.38,0,0,1,.39,0,2.24,2.24,0,0,1,.73.12c2-9.18,4.89-11.23,6.23-11.69a15.62,15.62,0,0,0-13.73-.1ZM42.7,70.66a15.6,15.6,0,0,0,10.12,8.81c-.67-1.35-1.25-4.86,3.23-12.84a2.28,2.28,0,0,1-.86-.65C47.13,72,43.75,71.22,42.7,70.66Zm-1.29-6.19a16.14,16.14,0,0,0,.18,2.32c.81-1.14,3.62-3.3,13-2.51a2.17,2.17,0,0,1,.34-1c-8.47-4.69-9.46-8-9.46-9.31A15.53,15.53,0,0,0,41.41,64.47Zm1.29,6.19a15.6,15.6,0,0,0,10.12,8.81c-.67-1.35-1.25-4.86,3.23-12.84a2.28,2.28,0,0,1-.86-.65C47.13,72,43.75,71.22,42.7,70.66Zm7.52-20.22c1,.16,4.2,1.47,6.38,11.7a2.38,2.38,0,0,1,.39,0,2.24,2.24,0,0,1,.73.12c2-9.18,4.89-11.23,6.23-11.69a15.62,15.62,0,0,0-13.73-.1Zm5.83,16.19h0v0Zm3.41,13.21a15.56,15.56,0,0,0,11.05-7.65c-1.31.41-4.86.46-11.85-6.06a2.23,2.23,0,0,1-.94.57C61.44,75.5,60.26,78.77,59.46,79.84Zm-.11-15.37c0,.08,0,.17,0,.25,9.41,0,12,2.44,12.73,3.65a15.61,15.61,0,0,0,.5-3.9,15.39,15.39,0,0,0-3.3-9.55c.06,1-.62,4.43-10.09,8.68A2.11,2.11,0,0,1,59.35,64.47Zm-17.94,0a16.14,16.14,0,0,0,.18,2.32c.81-1.14,3.62-3.3,13-2.51a2.17,2.17,0,0,1,.34-1c-8.47-4.69-9.46-8-9.46-9.31A15.53,15.53,0,0,0,41.41,64.47Zm17.94,0c0,.08,0,.17,0,.25,9.41,0,12,2.44,12.73,3.65a15.61,15.61,0,0,0,.5-3.9,15.39,15.39,0,0,0-3.3-9.55c.06,1-.62,4.43-10.09,8.68A2.11,2.11,0,0,1,59.35,64.47Zm.11,15.37a15.56,15.56,0,0,0,11.05-7.65c-1.31.41-4.86.46-11.85-6.06a2.23,2.23,0,0,1-.94.57C61.44,75.5,60.26,78.77,59.46,79.84ZM56.05,66.63h0v0ZM50.22,50.44c1,.16,4.2,1.47,6.38,11.7a2.38,2.38,0,0,1,.39,0,2.24,2.24,0,0,1,.73.12c2-9.18,4.89-11.23,6.23-11.69a15.62,15.62,0,0,0-13.73-.1ZM42.7,70.66a15.6,15.6,0,0,0,10.12,8.81c-.67-1.35-1.25-4.86,3.23-12.84a2.28,2.28,0,0,1-.86-.65C47.13,72,43.75,71.22,42.7,70.66Zm-1.29-6.19a16.14,16.14,0,0,0,.18,2.32c.81-1.14,3.62-3.3,13-2.51a2.17,2.17,0,0,1,.34-1c-8.47-4.69-9.46-8-9.46-9.31A15.53,15.53,0,0,0,41.41,64.47Zm1.29,6.19a15.6,15.6,0,0,0,10.12,8.81c-.67-1.35-1.25-4.86,3.23-12.84a2.28,2.28,0,0,1-.86-.65C47.13,72,43.75,71.22,42.7,70.66Zm7.52-20.22c1,.16,4.2,1.47,6.38,11.7a2.38,2.38,0,0,1,.39,0,2.24,2.24,0,0,1,.73.12c2-9.18,4.89-11.23,6.23-11.69a15.62,15.62,0,0,0-13.73-.1Zm5.83,16.19h0v0Zm3.41,13.21a15.56,15.56,0,0,0,11.05-7.65c-1.31.41-4.86.46-11.85-6.06a2.23,2.23,0,0,1-.94.57C61.44,75.5,60.26,78.77,59.46,79.84Zm-.11-15.37c0,.08,0,.17,0,.25,9.41,0,12,2.44,12.73,3.65a15.61,15.61,0,0,0,.5-3.9,15.39,15.39,0,0,0-3.3-9.55c.06,1-.62,4.43-10.09,8.68A2.11,2.11,0,0,1,59.35,64.47Zm-17.94,0a16.14,16.14,0,0,0,.18,2.32c.81-1.14,3.62-3.3,13-2.51a2.17,2.17,0,0,1,.34-1c-8.47-4.69-9.46-8-9.46-9.31A15.53,15.53,0,0,0,41.41,64.47Zm17.94,0c0,.08,0,.17,0,.25,9.41,0,12,2.44,12.73,3.65a15.61,15.61,0,0,0,.5-3.9,15.39,15.39,0,0,0-3.3-9.55c.06,1-.62,4.43-10.09,8.68A2.11,2.11,0,0,1,59.35,64.47Zm.11,15.37a15.56,15.56,0,0,0,11.05-7.65c-1.31.41-4.86.46-11.85-6.06a2.23,2.23,0,0,1-.94.57C61.44,75.5,60.26,78.77,59.46,79.84ZM56.05,66.63h0v0ZM50.22,50.44c1,.16,4.2,1.47,6.38,11.7a2.38,2.38,0,0,1,.39,0,2.24,2.24,0,0,1,.73.12c2-9.18,4.89-11.23,6.23-11.69a15.62,15.62,0,0,0-13.73-.1ZM42.7,70.66a15.6,15.6,0,0,0,10.12,8.81c-.67-1.35-1.25-4.86,3.23-12.84a2.28,2.28,0,0,1-.86-.65C47.13,72,43.75,71.22,42.7,70.66Zm-1.29-6.19a16.14,16.14,0,0,0,.18,2.32c.81-1.14,3.62-3.3,13-2.51a2.17,2.17,0,0,1,.34-1c-8.47-4.69-9.46-8-9.46-9.31A15.53,15.53,0,0,0,41.41,64.47Zm1.29,6.19a15.6,15.6,0,0,0,10.12,8.81c-.67-1.35-1.25-4.86,3.23-12.84a2.28,2.28,0,0,1-.86-.65C47.13,72,43.75,71.22,42.7,70.66Zm7.52-20.22c1,.16,4.2,1.47,6.38,11.7a2.38,2.38,0,0,1,.39,0,2.24,2.24,0,0,1,.73.12c2-9.18,4.89-11.23,6.23-11.69a15.62,15.62,0,0,0-13.73-.1Zm5.83,16.19h0v0Zm3.41,13.21a15.56,15.56,0,0,0,11.05-7.65c-1.31.41-4.86.46-11.85-6.06a2.23,2.23,0,0,1-.94.57C61.44,75.5,60.26,78.77,59.46,79.84Zm-.11-15.37c0,.08,0,.17,0,.25,9.41,0,12,2.44,12.73,3.65a15.61,15.61,0,0,0,.5-3.9,15.39,15.39,0,0,0-3.3-9.55c.06,1-.62,4.43-10.09,8.68A2.11,2.11,0,0,1,59.35,64.47Zm-17.94,0a16.14,16.14,0,0,0,.18,2.32c.81-1.14,3.62-3.3,13-2.51a2.17,2.17,0,0,1,.34-1c-8.47-4.69-9.46-8-9.46-9.31A15.53,15.53,0,0,0,41.41,64.47Zm17.94,0c0,.08,0,.17,0,.25,9.41,0,12,2.44,12.73,3.65a15.61,15.61,0,0,0,.5-3.9,15.39,15.39,0,0,0-3.3-9.55c.06,1-.62,4.43-10.09,8.68A2.11,2.11,0,0,1,59.35,64.47Zm.11,15.37a15.56,15.56,0,0,0,11.05-7.65c-1.31.41-4.86.46-11.85-6.06a2.23,2.23,0,0,1-.94.57C61.44,75.5,60.26,78.77,59.46,79.84ZM56.05,66.63h0v0ZM50.22,50.44c1,.16,4.2,1.47,6.38,11.7a2.38,2.38,0,0,1,.39,0,2.24,2.24,0,0,1,.73.12c2-9.18,4.89-11.23,6.23-11.69a15.62,15.62,0,0,0-13.73-.1ZM42.7,70.66a15.6,15.6,0,0,0,10.12,8.81c-.67-1.35-1.25-4.86,3.23-12.84a2.28,2.28,0,0,1-.86-.65C47.13,72,43.75,71.22,42.7,70.66Zm-1.29-6.19a16.14,16.14,0,0,0,.18,2.32c.81-1.14,3.62-3.3,13-2.51a2.17,2.17,0,0,1,.34-1c-8.47-4.69-9.46-8-9.46-9.31A15.53,15.53,0,0,0,41.41,64.47Zm1.29,6.19a15.6,15.6,0,0,0,10.12,8.81c-.67-1.35-1.25-4.86,3.23-12.84a2.28,2.28,0,0,1-.86-.65C47.13,72,43.75,71.22,42.7,70.66Zm7.52-20.22c1,.16,4.2,1.47,6.38,11.7a2.38,2.38,0,0,1,.39,0,2.24,2.24,0,0,1,.73.12c2-9.18,4.89-11.23,6.23-11.69a15.62,15.62,0,0,0-13.73-.1Zm5.83,16.19h0v0Zm3.41,13.21a15.56,15.56,0,0,0,11.05-7.65c-1.31.41-4.86.46-11.85-6.06a2.23,2.23,0,0,1-.94.57C61.44,75.5,60.26,78.77,59.46,79.84Zm-.11-15.37c0,.08,0,.17,0,.25,9.41,0,12,2.44,12.73,3.65a15.61,15.61,0,0,0,.5-3.9,15.39,15.39,0,0,0-3.3-9.55c.06,1-.62,4.43-10.09,8.68A2.11,2.11,0,0,1,59.35,64.47Zm-17.94,0a16.14,16.14,0,0,0,.18,2.32c.81-1.14,3.62-3.3,13-2.51a2.17,2.17,0,0,1,.34-1c-8.47-4.69-9.46-8-9.46-9.31A15.53,15.53,0,0,0,41.41,64.47Zm17.94,0c0,.08,0,.17,0,.25,9.41,0,12,2.44,12.73,3.65a15.61,15.61,0,0,0,.5-3.9,15.39,15.39,0,0,0-3.3-9.55c.06,1-.62,4.43-10.09,8.68A2.11,2.11,0,0,1,59.35,64.47Zm.11,15.37a15.56,15.56,0,0,0,11.05-7.65c-1.31.41-4.86.46-11.85-6.06a2.23,2.23,0,0,1-.94.57C61.44,75.5,60.26,78.77,59.46,79.84ZM56.05,66.63h0v0ZM50.22,50.44c1,.16,4.2,1.47,6.38,11.7a2.38,2.38,0,0,1,.39,0,2.24,2.24,0,0,1,.73.12c2-9.18,4.89-11.23,6.23-11.69a15.62,15.62,0,0,0-13.73-.1ZM42.7,70.66a15.6,15.6,0,0,0,10.12,8.81c-.67-1.35-1.25-4.86,3.23-12.84a2.28,2.28,0,0,1-.86-.65C47.13,72,43.75,71.22,42.7,70.66Zm-1.29-6.19a16.14,16.14,0,0,0,.18,2.32c.81-1.14,3.62-3.3,13-2.51a2.17,2.17,0,0,1,.34-1c-8.47-4.69-9.46-8-9.46-9.31A15.53,15.53,0,0,0,41.41,64.47Zm1.29,6.19a15.6,15.6,0,0,0,10.12,8.81c-.67-1.35-1.25-4.86,3.23-12.84a2.28,2.28,0,0,1-.86-.65C47.13,72,43.75,71.22,42.7,70.66Zm7.52-20.22c1,.16,4.2,1.47,6.38,11.7a2.38,2.38,0,0,1,.39,0,2.24,2.24,0,0,1,.73.12c2-9.18,4.89-11.23,6.23-11.69a15.62,15.62,0,0,0-13.73-.1Zm5.83,16.19h0v0Zm3.41,13.21a15.56,15.56,0,0,0,11.05-7.65c-1.31.41-4.86.46-11.85-6.06a2.23,2.23,0,0,1-.94.57C61.44,75.5,60.26,78.77,59.46,79.84Zm-.11-15.37c0,.08,0,.17,0,.25,9.41,0,12,2.44,12.73,3.65a15.61,15.61,0,0,0,.5-3.9,15.39,15.39,0,0,0-3.3-9.55c.06,1-.62,4.43-10.09,8.68A2.11,2.11,0,0,1,59.35,64.47Zm-17.94,0a16.14,16.14,0,0,0,.18,2.32c.81-1.14,3.62-3.3,13-2.51a2.17,2.17,0,0,1,.34-1c-8.47-4.69-9.46-8-9.46-9.31A15.53,15.53,0,0,0,41.41,64.47Zm17.94,0c0,.08,0,.17,0,.25,9.41,0,12,2.44,12.73,3.65a15.61,15.61,0,0,0,.5-3.9,15.39,15.39,0,0,0-3.3-9.55c.06,1-.62,4.43-10.09,8.68A2.11,2.11,0,0,1,59.35,64.47Zm.11,15.37a15.56,15.56,0,0,0,11.05-7.65c-1.31.41-4.86.46-11.85-6.06a2.23,2.23,0,0,1-.94.57C61.44,75.5,60.26,78.77,59.46,79.84ZM56.05,66.63h0v0ZM50.22,50.44c1,.16,4.2,1.47,6.38,11.7a2.38,2.38,0,0,1,.39,0,2.24,2.24,0,0,1,.73.12c2-9.18,4.89-11.23,6.23-11.69a15.62,15.62,0,0,0-13.73-.1ZM42.7,70.66a15.6,15.6,0,0,0,10.12,8.81c-.67-1.35-1.25-4.86,3.23-12.84a2.28,2.28,0,0,1-.86-.65C47.13,72,43.75,71.22,42.7,70.66Zm-1.29-6.19a16.14,16.14,0,0,0,.18,2.32c.81-1.14,3.62-3.3,13-2.51a2.17,2.17,0,0,1,.34-1c-8.47-4.69-9.46-8-9.46-9.31A15.53,15.53,0,0,0,41.41,64.47Zm1.29,6.19a15.6,15.6,0,0,0,10.12,8.81c-.67-1.35-1.25-4.86,3.23-12.84a2.28,2.28,0,0,1-.86-.65C47.13,72,43.75,71.22,42.7,70.66Zm13.9-8.52a2.38,2.38,0,0,1,.39,0,2.24,2.24,0,0,1,.73.12c2-9.18,4.89-11.23,6.23-11.69a15.62,15.62,0,0,0-13.73-.1C51.2,50.6,54.42,51.91,56.6,62.14Zm-.53,4.46,0,0h0Zm1.65.1c3.72,8.8,2.54,12.07,1.74,13.14a15.56,15.56,0,0,0,11.05-7.65c-1.31.41-4.86.46-11.85-6.06A2.23,2.23,0,0,1,57.72,66.7Zm1.62-2c9.41,0,12,2.44,12.73,3.65a15.61,15.61,0,0,0,.5-3.9,15.39,15.39,0,0,0-3.3-9.55c.06,1-.62,4.43-10.09,8.68a2.11,2.11,0,0,1,.17.87C59.35,64.55,59.34,64.64,59.34,64.72Zm-17.93-.25a16.14,16.14,0,0,0,.18,2.32c.81-1.14,3.62-3.3,13-2.51a2.17,2.17,0,0,1,.34-1c-8.47-4.69-9.46-8-9.46-9.31A15.53,15.53,0,0,0,41.41,64.47Zm-4.85,0A20.43,20.43,0,1,0,57,44,20.43,20.43,0,0,0,36.56,64.47Zm3.91,0A16.52,16.52,0,1,1,57,81,16.52,16.52,0,0,1,40.47,64.47Zm2.23,6.19a15.6,15.6,0,0,0,10.12,8.81c-.67-1.35-1.25-4.86,3.23-12.84a2.28,2.28,0,0,1-.86-.65C47.13,72,43.75,71.22,42.7,70.66Zm13.9-8.52a2.38,2.38,0,0,1,.39,0,2.24,2.24,0,0,1,.73.12c2-9.18,4.89-11.23,6.23-11.69a15.62,15.62,0,0,0-13.73-.1C51.2,50.6,54.42,51.91,56.6,62.14Zm-.53,4.46,0,0h0Zm1.65.1c3.72,8.8,2.54,12.07,1.74,13.14a15.56,15.56,0,0,0,11.05-7.65c-1.31.41-4.86.46-11.85-6.06A2.23,2.23,0,0,1,57.72,66.7Zm1.62-2c9.41,0,12,2.44,12.73,3.65a15.61,15.61,0,0,0,.5-3.9,15.39,15.39,0,0,0-3.3-9.55c.06,1-.62,4.43-10.09,8.68a2.11,2.11,0,0,1,.17.87C59.35,64.55,59.34,64.64,59.34,64.72Zm-17.93-.25a16.14,16.14,0,0,0,.18,2.32c.81-1.14,3.62-3.3,13-2.51a2.17,2.17,0,0,1,.34-1c-8.47-4.69-9.46-8-9.46-9.31A15.53,15.53,0,0,0,41.41,64.47Zm17.94,0c0,.08,0,.17,0,.25,9.41,0,12,2.44,12.73,3.65a15.61,15.61,0,0,0,.5-3.9,15.39,15.39,0,0,0-3.3-9.55c.06,1-.62,4.43-10.09,8.68A2.11,2.11,0,0,1,59.35,64.47Zm.11,15.37a15.56,15.56,0,0,0,11.05-7.65c-1.31.41-4.86.46-11.85-6.06a2.23,2.23,0,0,1-.94.57C61.44,75.5,60.26,78.77,59.46,79.84ZM56.05,66.63h0v0ZM50.22,50.44c1,.16,4.2,1.47,6.38,11.7a2.38,2.38,0,0,1,.39,0,2.24,2.24,0,0,1,.73.12c2-9.18,4.89-11.23,6.23-11.69a15.62,15.62,0,0,0-13.73-.1ZM42.7,70.66a15.6,15.6,0,0,0,10.12,8.81c-.67-1.35-1.25-4.86,3.23-12.84a2.28,2.28,0,0,1-.86-.65C47.13,72,43.75,71.22,42.7,70.66Zm-1.29-6.19a16.14,16.14,0,0,0,.18,2.32c.81-1.14,3.62-3.3,13-2.51a2.17,2.17,0,0,1,.34-1c-8.47-4.69-9.46-8-9.46-9.31A15.53,15.53,0,0,0,41.41,64.47Zm1.29,6.19a15.6,15.6,0,0,0,10.12,8.81c-.67-1.35-1.25-4.86,3.23-12.84a2.28,2.28,0,0,1-.86-.65C47.13,72,43.75,71.22,42.7,70.66Zm7.52-20.22c1,.16,4.2,1.47,6.38,11.7a2.38,2.38,0,0,1,.39,0,2.24,2.24,0,0,1,.73.12c2-9.18,4.89-11.23,6.23-11.69a15.62,15.62,0,0,0-13.73-.1Zm5.83,16.19h0v0Zm3.41,13.21a15.56,15.56,0,0,0,11.05-7.65c-1.31.41-4.86.46-11.85-6.06a2.23,2.23,0,0,1-.94.57C61.44,75.5,60.26,78.77,59.46,79.84Zm-.11-15.37c0,.08,0,.17,0,.25,9.41,0,12,2.44,12.73,3.65a15.61,15.61,0,0,0,.5-3.9,15.39,15.39,0,0,0-3.3-9.55c.06,1-.62,4.43-10.09,8.68A2.11,2.11,0,0,1,59.35,64.47Zm-17.94,0a16.14,16.14,0,0,0,.18,2.32c.81-1.14,3.62-3.3,13-2.51a2.17,2.17,0,0,1,.34-1c-8.47-4.69-9.46-8-9.46-9.31A15.53,15.53,0,0,0,41.41,64.47Zm17.94,0c0,.08,0,.17,0,.25,9.41,0,12,2.44,12.73,3.65a15.61,15.61,0,0,0,.5-3.9,15.39,15.39,0,0,0-3.3-9.55c.06,1-.62,4.43-10.09,8.68A2.11,2.11,0,0,1,59.35,64.47Zm.11,15.37a15.56,15.56,0,0,0,11.05-7.65c-1.31.41-4.86.46-11.85-6.06a2.23,2.23,0,0,1-.94.57C61.44,75.5,60.26,78.77,59.46,79.84ZM56.05,66.63h0v0ZM50.22,50.44c1,.16,4.2,1.47,6.38,11.7a2.38,2.38,0,0,1,.39,0,2.24,2.24,0,0,1,.73.12c2-9.18,4.89-11.23,6.23-11.69a15.62,15.62,0,0,0-13.73-.1ZM42.7,70.66a15.6,15.6,0,0,0,10.12,8.81c-.67-1.35-1.25-4.86,3.23-12.84a2.28,2.28,0,0,1-.86-.65C47.13,72,43.75,71.22,42.7,70.66Zm-1.29-6.19a16.14,16.14,0,0,0,.18,2.32c.81-1.14,3.62-3.3,13-2.51a2.17,2.17,0,0,1,.34-1c-8.47-4.69-9.46-8-9.46-9.31A15.53,15.53,0,0,0,41.41,64.47Zm1.29,6.19a15.6,15.6,0,0,0,10.12,8.81c-.67-1.35-1.25-4.86,3.23-12.84a2.28,2.28,0,0,1-.86-.65C47.13,72,43.75,71.22,42.7,70.66Zm7.52-20.22c1,.16,4.2,1.47,6.38,11.7a2.38,2.38,0,0,1,.39,0,2.24,2.24,0,0,1,.73.12c2-9.18,4.89-11.23,6.23-11.69a15.62,15.62,0,0,0-13.73-.1Zm5.83,16.19h0v0Zm3.41,13.21a15.56,15.56,0,0,0,11.05-7.65c-1.31.41-4.86.46-11.85-6.06a2.23,2.23,0,0,1-.94.57C61.44,75.5,60.26,78.77,59.46,79.84Zm-.11-15.37c0,.08,0,.17,0,.25,9.41,0,12,2.44,12.73,3.65a15.61,15.61,0,0,0,.5-3.9,15.39,15.39,0,0,0-3.3-9.55c.06,1-.62,4.43-10.09,8.68A2.11,2.11,0,0,1,59.35,64.47Zm-17.94,0a16.14,16.14,0,0,0,.18,2.32c.81-1.14,3.62-3.3,13-2.51a2.17,2.17,0,0,1,.34-1c-8.47-4.69-9.46-8-9.46-9.31A15.53,15.53,0,0,0,41.41,64.47Zm17.94,0c0,.08,0,.17,0,.25,9.41,0,12,2.44,12.73,3.65a15.61,15.61,0,0,0,.5-3.9,15.39,15.39,0,0,0-3.3-9.55c.06,1-.62,4.43-10.09,8.68A2.11,2.11,0,0,1,59.35,64.47Zm.11,15.37a15.56,15.56,0,0,0,11.05-7.65c-1.31.41-4.86.46-11.85-6.06a2.23,2.23,0,0,1-.94.57C61.44,75.5,60.26,78.77,59.46,79.84ZM56.05,66.63h0v0ZM50.22,50.44c1,.16,4.2,1.47,6.38,11.7a2.38,2.38,0,0,1,.39,0,2.24,2.24,0,0,1,.73.12c2-9.18,4.89-11.23,6.23-11.69a15.62,15.62,0,0,0-13.73-.1ZM42.7,70.66a15.6,15.6,0,0,0,10.12,8.81c-.67-1.35-1.25-4.86,3.23-12.84a2.28,2.28,0,0,1-.86-.65C47.13,72,43.75,71.22,42.7,70.66Zm-1.29-6.19a16.14,16.14,0,0,0,.18,2.32c.81-1.14,3.62-3.3,13-2.51a2.17,2.17,0,0,1,.34-1c-8.47-4.69-9.46-8-9.46-9.31A15.53,15.53,0,0,0,41.41,64.47Zm1.29,6.19a15.6,15.6,0,0,0,10.12,8.81c-.67-1.35-1.25-4.86,3.23-12.84a2.28,2.28,0,0,1-.86-.65C47.13,72,43.75,71.22,42.7,70.66Zm7.52-20.22c1,.16,4.2,1.47,6.38,11.7a2.38,2.38,0,0,1,.39,0,2.24,2.24,0,0,1,.73.12c2-9.18,4.89-11.23,6.23-11.69a15.62,15.62,0,0,0-13.73-.1Zm5.83,16.19h0v0Zm3.41,13.21a15.56,15.56,0,0,0,11.05-7.65c-1.31.41-4.86.46-11.85-6.06a2.23,2.23,0,0,1-.94.57C61.44,75.5,60.26,78.77,59.46,79.84Zm-.11-15.37c0,.08,0,.17,0,.25,9.41,0,12,2.44,12.73,3.65a15.61,15.61,0,0,0,.5-3.9,15.39,15.39,0,0,0-3.3-9.55c.06,1-.62,4.43-10.09,8.68A2.11,2.11,0,0,1,59.35,64.47Zm-17.94,0a16.14,16.14,0,0,0,.18,2.32c.81-1.14,3.62-3.3,13-2.51a2.17,2.17,0,0,1,.34-1c-8.47-4.69-9.46-8-9.46-9.31A15.53,15.53,0,0,0,41.41,64.47Zm17.94,0c0,.08,0,.17,0,.25,9.41,0,12,2.44,12.73,3.65a15.61,15.61,0,0,0,.5-3.9,15.39,15.39,0,0,0-3.3-9.55c.06,1-.62,4.43-10.09,8.68A2.11,2.11,0,0,1,59.35,64.47Zm.11,15.37a15.56,15.56,0,0,0,11.05-7.65c-1.31.41-4.86.46-11.85-6.06a2.23,2.23,0,0,1-.94.57C61.44,75.5,60.26,78.77,59.46,79.84ZM56.05,66.63h0v0ZM50.22,50.44c1,.16,4.2,1.47,6.38,11.7a2.38,2.38,0,0,1,.39,0,2.24,2.24,0,0,1,.73.12c2-9.18,4.89-11.23,6.23-11.69a15.62,15.62,0,0,0-13.73-.1ZM42.7,70.66a15.6,15.6,0,0,0,10.12,8.81c-.67-1.35-1.25-4.86,3.23-12.84a2.28,2.28,0,0,1-.86-.65C47.13,72,43.75,71.22,42.7,70.66Zm-1.29-6.19a16.14,16.14,0,0,0,.18,2.32c.81-1.14,3.62-3.3,13-2.51a2.17,2.17,0,0,1,.34-1c-8.47-4.69-9.46-8-9.46-9.31A15.53,15.53,0,0,0,41.41,64.47Zm1.29,6.19a15.6,15.6,0,0,0,10.12,8.81c-.67-1.35-1.25-4.86,3.23-12.84a2.28,2.28,0,0,1-.86-.65C47.13,72,43.75,71.22,42.7,70.66Zm7.52-20.22c1,.16,4.2,1.47,6.38,11.7a2.38,2.38,0,0,1,.39,0,2.24,2.24,0,0,1,.73.12c2-9.18,4.89-11.23,6.23-11.69a15.62,15.62,0,0,0-13.73-.1Zm5.83,16.19h0v0Zm3.41,13.21a15.56,15.56,0,0,0,11.05-7.65c-1.31.41-4.86.46-11.85-6.06a2.23,2.23,0,0,1-.94.57C61.44,75.5,60.26,78.77,59.46,79.84Zm-.11-15.37c0,.08,0,.17,0,.25,9.41,0,12,2.44,12.73,3.65a15.61,15.61,0,0,0,.5-3.9,15.39,15.39,0,0,0-3.3-9.55c.06,1-.62,4.43-10.09,8.68A2.11,2.11,0,0,1,59.35,64.47Zm-17.94,0a16.14,16.14,0,0,0,.18,2.32c.81-1.14,3.62-3.3,13-2.51a2.17,2.17,0,0,1,.34-1c-8.47-4.69-9.46-8-9.46-9.31A15.53,15.53,0,0,0,41.41,64.47Zm17.94,0c0,.08,0,.17,0,.25,9.41,0,12,2.44,12.73,3.65a15.61,15.61,0,0,0,.5-3.9,15.39,15.39,0,0,0-3.3-9.55c.06,1-.62,4.43-10.09,8.68A2.11,2.11,0,0,1,59.35,64.47Zm.11,15.37a15.56,15.56,0,0,0,11.05-7.65c-1.31.41-4.86.46-11.85-6.06a2.23,2.23,0,0,1-.94.57C61.44,75.5,60.26,78.77,59.46,79.84ZM56.05,66.63h0v0ZM50.22,50.44c1,.16,4.2,1.47,6.38,11.7a2.38,2.38,0,0,1,.39,0,2.24,2.24,0,0,1,.73.12c2-9.18,4.89-11.23,6.23-11.69a15.62,15.62,0,0,0-13.73-.1ZM42.7,70.66a15.6,15.6,0,0,0,10.12,8.81c-.67-1.35-1.25-4.86,3.23-12.84a2.28,2.28,0,0,1-.86-.65C47.13,72,43.75,71.22,42.7,70.66Zm-1.29-6.19a16.14,16.14,0,0,0,.18,2.32c.81-1.14,3.62-3.3,13-2.51a2.17,2.17,0,0,1,.34-1c-8.47-4.69-9.46-8-9.46-9.31A15.53,15.53,0,0,0,41.41,64.47Zm1.29,6.19a15.6,15.6,0,0,0,10.12,8.81c-.67-1.35-1.25-4.86,3.23-12.84a2.28,2.28,0,0,1-.86-.65C47.13,72,43.75,71.22,42.7,70.66Zm7.52-20.22c1,.16,4.2,1.47,6.38,11.7a2.38,2.38,0,0,1,.39,0,2.24,2.24,0,0,1,.73.12c2-9.18,4.89-11.23,6.23-11.69a15.62,15.62,0,0,0-13.73-.1Zm5.83,16.19h0v0Zm3.41,13.21a15.56,15.56,0,0,0,11.05-7.65c-1.31.41-4.86.46-11.85-6.06a2.23,2.23,0,0,1-.94.57C61.44,75.5,60.26,78.77,59.46,79.84Zm-.11-15.37c0,.08,0,.17,0,.25,9.41,0,12,2.44,12.73,3.65a15.61,15.61,0,0,0,.5-3.9,15.39,15.39,0,0,0-3.3-9.55c.06,1-.62,4.43-10.09,8.68A2.11,2.11,0,0,1,59.35,64.47Zm-17.94,0a16.14,16.14,0,0,0,.18,2.32c.81-1.14,3.62-3.3,13-2.51a2.17,2.17,0,0,1,.34-1c-8.47-4.69-9.46-8-9.46-9.31A15.53,15.53,0,0,0,41.41,64.47Zm17.94,0c0,.08,0,.17,0,.25,9.41,0,12,2.44,12.73,3.65a15.61,15.61,0,0,0,.5-3.9,15.39,15.39,0,0,0-3.3-9.55c.06,1-.62,4.43-10.09,8.68A2.11,2.11,0,0,1,59.35,64.47Zm.11,15.37a15.56,15.56,0,0,0,11.05-7.65c-1.31.41-4.86.46-11.85-6.06a2.23,2.23,0,0,1-.94.57C61.44,75.5,60.26,78.77,59.46,79.84ZM56.05,66.63h0v0ZM50.22,50.44c1,.16,4.2,1.47,6.38,11.7a2.38,2.38,0,0,1,.39,0,2.24,2.24,0,0,1,.73.12c2-9.18,4.89-11.23,6.23-11.69a15.62,15.62,0,0,0-13.73-.1ZM42.7,70.66a15.6,15.6,0,0,0,10.12,8.81c-.67-1.35-1.25-4.86,3.23-12.84a2.28,2.28,0,0,1-.86-.65C47.13,72,43.75,71.22,42.7,70.66Zm-1.29-6.19a16.14,16.14,0,0,0,.18,2.32c.81-1.14,3.62-3.3,13-2.51a2.17,2.17,0,0,1,.34-1c-8.47-4.69-9.46-8-9.46-9.31A15.53,15.53,0,0,0,41.41,64.47Zm1.29,6.19a15.6,15.6,0,0,0,10.12,8.81c-.67-1.35-1.25-4.86,3.23-12.84a2.28,2.28,0,0,1-.86-.65C47.13,72,43.75,71.22,42.7,70.66Zm7.52-20.22c1,.16,4.2,1.47,6.38,11.7a2.38,2.38,0,0,1,.39,0,2.24,2.24,0,0,1,.73.12c2-9.18,4.89-11.23,6.23-11.69a15.62,15.62,0,0,0-13.73-.1Zm5.83,16.19h0v0Zm3.41,13.21a15.56,15.56,0,0,0,11.05-7.65c-1.31.41-4.86.46-11.85-6.06a2.23,2.23,0,0,1-.94.57C61.44,75.5,60.26,78.77,59.46,79.84Zm-.11-15.37c0,.08,0,.17,0,.25,9.41,0,12,2.44,12.73,3.65a15.61,15.61,0,0,0,.5-3.9,15.39,15.39,0,0,0-3.3-9.55c.06,1-.62,4.43-10.09,8.68A2.11,2.11,0,0,1,59.35,64.47Zm-3.3,2.16h0v0Zm0,0h0v0Zm0,0h0v0Zm0,0h0v0Zm0,0h0v0Zm0,0h0v0Zm0,0h0v0Zm0,0h0v0Zm0,0h0v0Zm0,0h0v0Z"/><path d="M59.35,64.47c0,.08,0,.17,0,.25,9.41,0,12,2.44,12.73,3.65a15.61,15.61,0,0,0,.5-3.9,15.39,15.39,0,0,0-3.3-9.55c.06,1-.62,4.43-10.09,8.68A2.11,2.11,0,0,1,59.35,64.47Z"/><path d="M59.46,79.84a15.56,15.56,0,0,0,11.05-7.65c-1.31.41-4.86.46-11.85-6.06a2.23,2.23,0,0,1-.94.57C61.44,75.5,60.26,78.77,59.46,79.84Z"/><path d="M56.05,66.63h0v0Z"/><path d="M50.22,50.44c1,.16,4.2,1.47,6.38,11.7a2.38,2.38,0,0,1,.39,0,2.24,2.24,0,0,1,.73.12c2-9.18,4.89-11.23,6.23-11.69a15.62,15.62,0,0,0-13.73-.1Z"/><path d="M42.7,70.66a15.6,15.6,0,0,0,10.12,8.81c-.67-1.35-1.25-4.86,3.23-12.84a2.28,2.28,0,0,1-.86-.65C47.13,72,43.75,71.22,42.7,70.66Z"/><path d="M41.41,64.47a16.14,16.14,0,0,0,.18,2.32c.81-1.14,3.62-3.3,13-2.51a2.17,2.17,0,0,1,.34-1c-8.47-4.69-9.46-8-9.46-9.31A15.53,15.53,0,0,0,41.41,64.47Z"/><path d="M56.05,66.63h0v0Zm0,0h0v0Zm0,0h0v0Zm0,0h0v0Zm0,0h0v0Zm0,0h0v0Zm0,0h0v0Zm0,0h0v0Zm0,0h0v0Zm0,0h0v0ZM41.41,64.47a16.14,16.14,0,0,0,.18,2.32c.81-1.14,3.62-3.3,13-2.51a2.17,2.17,0,0,1,.34-1c-8.47-4.69-9.46-8-9.46-9.31A15.53,15.53,0,0,0,41.41,64.47Zm1.29,6.19a15.6,15.6,0,0,0,10.12,8.81c-.67-1.35-1.25-4.86,3.23-12.84a2.28,2.28,0,0,1-.86-.65C47.13,72,43.75,71.22,42.7,70.66Zm7.52-20.22c1,.16,4.2,1.47,6.38,11.7a2.38,2.38,0,0,1,.39,0,2.24,2.24,0,0,1,.73.12c2-9.18,4.89-11.23,6.23-11.69a15.62,15.62,0,0,0-13.73-.1Zm5.83,16.19h0v0Zm3.41,13.21a15.56,15.56,0,0,0,11.05-7.65c-1.31.41-4.86.46-11.85-6.06a2.23,2.23,0,0,1-.94.57C61.44,75.5,60.26,78.77,59.46,79.84Zm-.11-15.37c0,.08,0,.17,0,.25,9.41,0,12,2.44,12.73,3.65a15.61,15.61,0,0,0,.5-3.9,15.39,15.39,0,0,0-3.3-9.55c.06,1-.62,4.43-10.09,8.68A2.11,2.11,0,0,1,59.35,64.47Zm-3.3,2.16h0v0Zm0,0h0v0Zm0,0h0v0Zm0,0h0v0Zm0,0h0v0Zm0,0h0v0Zm0,0h0v0Zm0,0h0v0Zm0,0h0v0Zm0,0h0v0Z"/><path d="M54.63,64.47A2.33,2.33,0,0,0,55.16,66l0,0a2.28,2.28,0,0,0,.86.65l0,0v0a2.57,2.57,0,0,0,.93.19,2.12,2.12,0,0,0,.71-.12s0,0,0,0a2.23,2.23,0,0,0,.94-.57l0,0a2.32,2.32,0,0,0,.64-1.32.13.13,0,0,0,0-.06c0-.08,0-.17,0-.25a2.11,2.11,0,0,0-.17-.87s0-.05,0-.07a2.37,2.37,0,0,0-1.39-1.28s0,0-.05,0a2.24,2.24,0,0,0-.73-.12,2.38,2.38,0,0,0-.39,0l-.07,0A2.32,2.32,0,0,0,55,63.21a0,0,0,0,0,0,0,2.17,2.17,0,0,0-.34,1v0h0A.71.71,0,0,0,54.63,64.47Z"/><path d="M56.05,66.63h0v0Z"/><path d="M56.05,66.63h0v0Z"/></svg>